<svg xmlns="http://www.w3.org/2000/svg" xmlns:xlink="http://www.w3.org/1999/xlink" width="318" zoomAndPan="magnify" viewBox="0 0 238.5 179.249993" height="239" preserveAspectRatio="xMidYMid meet" version="1.2"><defs><clipPath id="07e5535f0c"><path d="M 0.246094 0 L 237 0 L 237 177.757812 L 0.246094 177.757812 Z M 0.246094 0 "/></clipPath><clipPath id="63c6898e05"><path d="M 33.65625 144.0625 L 55.980469 144.0625 L 55.980469 166.386719 L 33.65625 166.386719 Z M 33.65625 144.0625 "/></clipPath><clipPath id="8017a99d96"><path d="M 44.820312 144.0625 C 38.652344 144.0625 33.65625 149.058594 33.65625 155.222656 C 33.65625 161.390625 38.652344 166.386719 44.820312 166.386719 C 50.984375 166.386719 55.980469 161.390625 55.980469 155.222656 C 55.980469 149.058594 50.984375 144.0625 44.820312 144.0625 Z M 44.820312 144.0625 "/></clipPath><clipPath id="ca2f742c07"><path d="M 0.65625 0.0625 L 22.980469 0.0625 L 22.980469 22.386719 L 0.65625 22.386719 Z M 0.65625 0.0625 "/></clipPath><clipPath id="6856c91157"><path d="M 11.820312 0.0625 C 5.652344 0.0625 0.65625 5.058594 0.65625 11.222656 C 0.65625 17.390625 5.652344 22.386719 11.820312 22.386719 C 17.984375 22.386719 22.980469 17.390625 22.980469 11.222656 C 22.980469 5.058594 17.984375 0.0625 11.820312 0.0625 Z M 11.820312 0.0625 "/></clipPath><clipPath id="730029369f"><rect x="0" width="23" y="0" height="23"/></clipPath><clipPath id="e4c3169e33"><path d="M 103.972656 143.652344 L 126.296875 143.652344 L 126.296875 165.976562 L 103.972656 165.976562 Z M 103.972656 143.652344 "/></clipPath><clipPath id="d599df3f29"><path d="M 115.132812 143.652344 C 108.96875 143.652344 103.972656 148.648438 103.972656 154.8125 C 103.972656 160.980469 108.96875 165.976562 115.132812 165.976562 C 121.300781 165.976562 126.296875 160.980469 126.296875 154.8125 C 126.296875 148.648438 121.300781 143.652344 115.132812 143.652344 Z M 115.132812 143.652344 "/></clipPath><clipPath id="45b2a9701a"><path d="M 0.972656 0.652344 L 23.296875 0.652344 L 23.296875 22.976562 L 0.972656 22.976562 Z M 0.972656 0.652344 "/></clipPath><clipPath id="8b2da16c1d"><path d="M 12.132812 0.652344 C 5.96875 0.652344 0.972656 5.648438 0.972656 11.8125 C 0.972656 17.980469 5.96875 22.976562 12.132812 22.976562 C 18.300781 22.976562 23.296875 17.980469 23.296875 11.8125 C 23.296875 5.648438 18.300781 0.652344 12.132812 0.652344 Z M 12.132812 0.652344 "/></clipPath><clipPath id="b59948620b"><rect x="0" width="24" y="0" height="23"/></clipPath></defs><g id="773b4a8ea9"><g clip-rule="nonzero" clip-path="url(#07e5535f0c)"><path style=" stroke:none;fill-rule:nonzero;fill:#000000;fill-opacity:1;" d="M 229.609375 143.191406 L 163.019531 143.191406 L 163.019531 7.410156 C 163.019531 3.320312 159.707031 0.00390625 155.621094 0.00390625 C 151.539062 0.00390625 148.222656 3.320312 148.222656 7.410156 L 148.222656 93.816406 L 138.082031 93.816406 L 114.867188 28 C 111.050781 17.15625 100.773438 9.878906 89.289062 9.878906 L 56.972656 9.878906 C 52.886719 9.878906 49.574219 13.195312 49.574219 17.285156 L 49.574219 69.128906 L 27.375 69.128906 C 12.410156 69.128906 0.246094 81.304688 0.246094 96.285156 L 0.246094 140.722656 C 0.246094 150.25 7.992188 158.003906 17.511719 158.003906 L 20.480469 158.003906 C 22.769531 169.261719 32.734375 177.753906 44.640625 177.753906 C 56.546875 177.753906 66.511719 169.261719 68.800781 158.003906 L 89.527344 158.003906 C 91.816406 169.261719 101.777344 177.753906 113.683594 177.753906 C 125.59375 177.753906 135.554688 169.261719 137.84375 158.003906 L 229.597656 158.003906 C 233.683594 158.003906 236.996094 154.683594 236.996094 150.597656 C 236.996094 146.507812 233.691406 143.191406 229.609375 143.191406 Z M 64.371094 24.691406 L 89.289062 24.691406 C 94.507812 24.691406 99.183594 28 100.921875 32.925781 L 122.386719 93.816406 L 76.703125 93.816406 C 69.90625 93.816406 64.371094 88.277344 64.371094 81.472656 Z M 44.640625 162.941406 C 39.195312 162.941406 34.773438 158.507812 34.773438 153.066406 C 34.773438 147.625 39.195312 143.191406 44.640625 143.191406 C 50.085938 143.191406 54.503906 147.625 54.503906 153.066406 C 54.503906 158.507812 50.085938 162.941406 44.640625 162.941406 Z M 113.695312 162.941406 C 108.25 162.941406 103.832031 158.507812 103.832031 153.066406 C 103.832031 147.625 108.25 143.191406 113.695312 143.191406 C 119.140625 143.191406 123.558594 147.625 123.558594 153.066406 C 123.558594 158.507812 119.140625 162.941406 113.695312 162.941406 Z M 113.695312 162.941406 "/></g><g clip-rule="nonzero" clip-path="url(#63c6898e05)"><g clip-rule="nonzero" clip-path="url(#8017a99d96)"><g transform="matrix(1,0,0,1,33,144)"><g clip-path="url(#730029369f)"><g clip-rule="nonzero" clip-path="url(#ca2f742c07)"><g clip-rule="nonzero" clip-path="url(#6856c91157)"><path style=" stroke:none;fill-rule:nonzero;fill:#ffffff;fill-opacity:1;" d="M 0.65625 0.0625 L 22.980469 0.0625 L 22.980469 22.386719 L 0.65625 22.386719 Z M 0.65625 0.0625 "/></g></g></g></g></g></g><g clip-rule="nonzero" clip-path="url(#e4c3169e33)"><g clip-rule="nonzero" clip-path="url(#d599df3f29)"><g transform="matrix(1,0,0,1,103,143)"><g clip-path="url(#b59948620b)"><g clip-rule="nonzero" clip-path="url(#45b2a9701a)"><g clip-rule="nonzero" clip-path="url(#8b2da16c1d)"><path style=" stroke:none;fill-rule:nonzero;fill:#ffffff;fill-opacity:1;" d="M 0.972656 0.652344 L 23.296875 0.652344 L 23.296875 22.976562 L 0.972656 22.976562 Z M 0.972656 0.652344 "/></g></g></g></g></g></g></g></svg>