<svg xmlns="http://www.w3.org/2000/svg" xmlns:xlink="http://www.w3.org/1999/xlink" width="318" zoomAndPan="magnify" viewBox="0 0 238.5 190.499994" height="254" preserveAspectRatio="xMidYMid meet" version="1.2"><defs><clipPath id="c672ba5c9d"><path d="M 1 0 L 236 0 L 236 190 L 1 190 Z M 1 0 "/></clipPath><clipPath id="e1b91d074f"><path d="M 109 155.472656 L 131.359375 155.472656 L 131.359375 177.832031 L 109 177.832031 Z M 109 155.472656 "/></clipPath><clipPath id="a924eaf66f"><path d="M 120.179688 155.472656 C 114.007812 155.472656 109 160.476562 109 166.652344 C 109 172.828125 114.007812 177.832031 120.179688 177.832031 C 126.355469 177.832031 131.359375 172.828125 131.359375 166.652344 C 131.359375 160.476562 126.355469 155.472656 120.179688 155.472656 Z M 120.179688 155.472656 "/></clipPath><clipPath id="1fc876ce9c"><path d="M 0 0.472656 L 22.359375 0.472656 L 22.359375 22.832031 L 0 22.832031 Z M 0 0.472656 "/></clipPath><clipPath id="5ae77364dd"><path d="M 11.179688 0.472656 C 5.007812 0.472656 0 5.476562 0 11.652344 C 0 17.828125 5.007812 22.832031 11.179688 22.832031 C 17.355469 22.832031 22.359375 17.828125 22.359375 11.652344 C 22.359375 5.476562 17.355469 0.472656 11.179688 0.472656 Z M 11.179688 0.472656 "/></clipPath><clipPath id="7e0ca327ca"><rect x="0" width="23" y="0" height="23"/></clipPath><clipPath id="9c0ee5f0b8"><path d="M 11.554688 163.550781 L 29.539062 163.550781 L 29.539062 181.535156 L 11.554688 181.535156 Z M 11.554688 163.550781 "/></clipPath><clipPath id="a56ac3200d"><path d="M 20.546875 163.550781 C 15.578125 163.550781 11.554688 167.574219 11.554688 172.542969 C 11.554688 177.507812 15.578125 181.535156 20.546875 181.535156 C 25.511719 181.535156 29.539062 177.507812 29.539062 172.542969 C 29.539062 167.574219 25.511719 163.550781 20.546875 163.550781 Z M 20.546875 163.550781 "/></clipPath><clipPath id="5187d2364d"><path d="M 0.554688 0.550781 L 18.539062 0.550781 L 18.539062 18.535156 L 0.554688 18.535156 Z M 0.554688 0.550781 "/></clipPath><clipPath id="ed39eddc19"><path d="M 9.546875 0.550781 C 4.578125 0.550781 0.554688 4.574219 0.554688 9.542969 C 0.554688 14.507812 4.578125 18.535156 9.546875 18.535156 C 14.511719 18.535156 18.539062 14.507812 18.539062 9.542969 C 18.539062 4.574219 14.511719 0.550781 9.546875 0.550781 Z M 9.546875 0.550781 "/></clipPath><clipPath id="04b97c437d"><rect x="0" width="19" y="0" height="19"/></clipPath></defs><g id="7c32036435"><g clip-rule="nonzero" clip-path="url(#c672ba5c9d)"><path style=" stroke:none;fill-rule:nonzero;fill:#000000;fill-opacity:1;" d="M 158.882812 153.96875 C 156.832031 153.96875 154.878906 152.757812 154.019531 150.753906 L 92.875 8.175781 C 91.722656 5.488281 92.960938 2.371094 95.648438 1.21875 C 98.335938 0.0664062 101.445312 1.304688 102.597656 3.996094 L 161.65625 141.714844 L 227.984375 113.441406 C 230.679688 112.289062 233.78125 113.550781 234.925781 116.242188 C 236.070312 118.9375 234.824219 122.046875 232.132812 123.191406 L 160.957031 153.53125 C 160.273438 153.824219 159.566406 153.96875 158.882812 153.96875 Z M 199.191406 50.695312 C 198.046875 48.003906 194.9375 46.75 192.25 47.902344 L 145.355469 67.894531 C 142.664062 69.042969 141.417969 72.15625 142.558594 74.847656 L 164.386719 126.214844 C 165.535156 128.898438 168.636719 130.15625 171.328125 129.011719 L 218.226562 109.015625 C 220.914062 107.867188 222.167969 104.761719 221.019531 102.0625 Z M 93.628906 163.539062 C 93.628906 178.164062 105.46875 190.027344 120.078125 190.027344 C 134.679688 190.027344 146.519531 178.164062 146.519531 163.539062 C 146.519531 148.90625 134.679688 137.050781 120.078125 137.050781 C 105.46875 137.050781 93.628906 148.90625 93.628906 163.539062 Z M 86.613281 169.722656 L 49.277344 169.722656 C 49.277344 154.304688 36.796875 141.804688 21.402344 141.804688 C 13.359375 141.804688 6.132812 145.238281 1.050781 150.699219 L 1.050781 107.816406 C 1.050781 104.894531 3.417969 102.519531 6.339844 102.519531 L 14.792969 102.519531 L 14.792969 43.167969 C 14.792969 39.507812 17.753906 36.542969 21.40625 36.542969 L 90.71875 36.542969 C 93.363281 36.542969 95.753906 38.121094 96.796875 40.554688 L 131.050781 120.621094 C 131.476562 121.625 131.617188 122.664062 131.539062 123.691406 C 131.539062 123.695312 131.539062 123.699219 131.539062 123.707031 L 131.539062 131.457031 C 127.957031 130.171875 124.109375 129.4375 120.085938 129.4375 C 101.28125 129.4375 86.03125 144.703125 86.03125 163.539062 C 86.023438 165.65625 86.246094 167.710938 86.613281 169.722656 Z M 75.175781 118.414062 L 115.71875 118.414062 L 86.351562 49.792969 L 28.011719 49.792969 L 28.011719 102.523438 L 67.714844 102.523438 Z M 1.128906 169.722656 C 1.128906 180.9375 10.203125 190.027344 21.398438 190.027344 C 32.597656 190.027344 41.667969 180.941406 41.667969 169.722656 C 41.667969 158.511719 32.597656 149.421875 21.398438 149.421875 C 10.203125 149.421875 1.128906 158.511719 1.128906 169.722656 Z M 1.128906 169.722656 "/></g><g clip-rule="nonzero" clip-path="url(#e1b91d074f)"><g clip-rule="nonzero" clip-path="url(#a924eaf66f)"><g transform="matrix(1,0,0,1,109,155)"><g clip-path="url(#7e0ca327ca)"><g clip-rule="nonzero" clip-path="url(#1fc876ce9c)"><g clip-rule="nonzero" clip-path="url(#5ae77364dd)"><path style=" stroke:none;fill-rule:nonzero;fill:#ffffff;fill-opacity:1;" d="M 0 0.472656 L 22.359375 0.472656 L 22.359375 22.832031 L 0 22.832031 Z M 0 0.472656 "/></g></g></g></g></g></g><g clip-rule="nonzero" clip-path="url(#9c0ee5f0b8)"><g clip-rule="nonzero" clip-path="url(#a56ac3200d)"><g transform="matrix(1,0,0,1,11,163)"><g clip-path="url(#04b97c437d)"><g clip-rule="nonzero" clip-path="url(#5187d2364d)"><g clip-rule="nonzero" clip-path="url(#ed39eddc19)"><path style=" stroke:none;fill-rule:nonzero;fill:#ffffff;fill-opacity:1;" d="M 0.554688 0.550781 L 18.539062 0.550781 L 18.539062 18.535156 L 0.554688 18.535156 Z M 0.554688 0.550781 "/></g></g></g></g></g></g></g></svg>